<svg width="800" height="600" viewBox="0 0 800 600" fill="none" xmlns="http://www.w3.org/2000/svg">
  <!-- Background Blob -->
  <path d="M400 100C550 100 650 200 650 350C650 500 550 550 400 550C250 550 150 500 150 350C150 200 250 100 400 100Z" fill="#FFF7ED"/>
  
  <!-- Abstract Table -->
  <rect x="250" y="350" width="300" height="20" rx="10" fill="#EFBF04"/>
  <rect x="280" y="370" width="20" height="100" rx="5" fill="#CBD5E1"/>
  <rect x="500" y="370" width="20" height="100" rx="5" fill="#CBD5E1"/>

  <!-- Character 1 (Left) - Abstract -->
  <circle cx="200" cy="250" r="30" fill="#1F2937"/>
  <path d="M170 350C170 300 230 300 230 350V450H170V350Z" fill="#F87171"/>
  
  <!-- Character 2 (Middle) - Abstract -->
  <circle cx="400" cy="230" r="30" fill="#1F2937"/>
  <path d="M370 350C370 300 430 300 430 350V450H370V350Z" fill="#60A5FA"/>

  <!-- Character 3 (Right) - Abstract -->
  <circle cx="600" cy="250" r="30" fill="#1F2937"/>
  <path d="M570 350C570 300 630 300 630 350V450H570V350Z" fill="#34D399"/>

  <!-- Laptop -->
  <rect x="375" y="320" width="50" height="30" rx="2" fill="#1F2937"/>
  
  <!-- Content Placeholder Text -->
  <text x="400" y="550" text-anchor="middle" font-family="sans-serif" font-size="24" fill="#94A3B8">Illustration Placeholder</text>
</svg>
